<?xml version="1.0" encoding="UTF-8"?>
<svg xmlns="http://www.w3.org/2000/svg" xmlns:xlink="http://www.w3.org/1999/xlink" id="Layer_1" viewBox="0 0 168 168">
  <defs>
    <style>.cls-1{mask:url(#mask);}.cls-2{fill:none;stroke:#e80d46;stroke-linejoin:round;stroke-width:.5px;}.cls-3{mask:url(#mask-3);}.cls-4{mask:url(#mask-2);}.cls-5{mask:url(#mask-5);}.cls-6{mask:url(#mask-4);}.cls-7{mask:url(#mask-1);}.cls-8{mask:url(#mask-7);}.cls-9{mask:url(#mask-6);}.cls-10{fill:#fff;stroke-width:0px;}</style>
    <mask id="mask" x="33.68" y="13.57" width="110.56" height="113.62" maskUnits="userSpaceOnUse">
      <g id="mask0_1008_6352">
        <path class="cls-10" d="m114.92,13.82l5.57,24.03,23.51,17.26c-4.48,3.9-9.73,6.68-15.43,8.83-3.29,1.24-6.73,2.27-10.26,3.17-9.64,2.47-19.94,4.04-29.58,6.51l30.37,43.14-26.99,10.18-29.08-41.3-29.09-41.29c4.5-3.92,9.74-6.69,15.43-8.84,3.29-1.24,6.73-2.27,10.27-3.17,9.65-2.47,19.94-4.03,29.58-6.51,3.53-.91,6.97-1.93,10.27-3.17,5.7-2.15,10.96-4.94,15.43-8.83h.01Z"></path>
      </g>
    </mask>
    <mask id="mask-1" x="23.77" y="40.47" width="110.55" height="113.62" maskUnits="userSpaceOnUse">
      <g id="mask1_1008_6352">
        <path class="cls-10" d="m105,40.72l5.57,24.03,23.51,17.26c-4.48,3.9-9.73,6.68-15.43,8.83-3.29,1.24-6.73,2.27-10.27,3.17-9.64,2.47-19.94,4.04-29.58,6.51l30.37,43.14-26.99,10.18-29.08-41.3-29.08-41.29c4.5-3.92,9.74-6.69,15.43-8.84,3.29-1.24,6.73-2.27,10.27-3.17,9.65-2.47,19.94-4.03,29.58-6.51,3.53-.91,6.97-1.93,10.27-3.17,5.7-2.15,10.96-4.94,15.43-8.83Z"></path>
      </g>
    </mask>
    <mask id="mask-2" x="104.75" y="13.57" width="15.98" height="51.42" maskUnits="userSpaceOnUse">
      <g id="mask2_1008_6352">
        <path class="cls-10" d="m105,40.72l9.92-26.9,5.55,24.03-9.91,26.89-5.57-24.02Z"></path>
      </g>
    </mask>
    <mask id="mask-3" x="110.31" y="37.6" width="33.92" height="44.65" maskUnits="userSpaceOnUse">
      <g id="mask3_1008_6352">
        <path class="cls-10" d="m110.56,64.74l9.91-26.89,23.51,17.26-9.91,26.89-23.51-17.26Z"></path>
      </g>
    </mask>
    <mask id="mask-4" x="78.54" y="54.85" width="65.69" height="45.91" maskUnits="userSpaceOnUse">
      <g id="mask4_1008_6352">
        <path class="cls-10" d="m134.07,82c-4.48,3.9-9.73,6.68-15.43,8.83-3.29,1.24-6.73,2.27-10.27,3.17-9.64,2.47-19.94,4.04-29.58,6.51l9.91-26.9c9.65-2.47,19.94-4.04,29.58-6.51,3.53-.91,6.97-1.93,10.27-3.17,5.7-2.15,10.95-4.94,15.43-8.83-2.97,8.06-5.08,19.86-9.91,26.9Z"></path>
      </g>
    </mask>
    <mask id="mask-5" x="78.53" y="73.37" width="40.78" height="70.54" maskUnits="userSpaceOnUse">
      <g id="mask5_1008_6352">
        <path class="cls-10" d="m78.78,100.52l9.91-26.9,30.37,43.14-9.91,26.9-30.37-43.14Z"></path>
      </g>
    </mask>
    <mask id="mask-6" x="81.92" y="116.51" width="37.4" height="37.57" maskUnits="userSpaceOnUse">
      <g id="mask6_1008_6352">
        <path class="cls-10" d="m109.16,143.66l-26.99,10.17,9.91-26.89,26.99-10.18-9.91,26.9Z"></path>
      </g>
    </mask>
    <mask id="mask-7" x="23.77" y="13.57" width="91.39" height="57.93" maskUnits="userSpaceOnUse">
      <g id="mask7_1008_6352">
        <path class="cls-10" d="m24.02,71.24l9.91-26.9c4.5-3.92,9.74-6.69,15.43-8.84,3.29-1.24,6.73-2.27,10.27-3.17,9.65-2.47,19.94-4.03,29.58-6.51,3.53-.91,6.97-1.93,10.27-3.17,5.7-2.15,10.96-4.94,15.43-8.83l-9.91,26.9c-4.48,3.9-9.73,6.68-15.43,8.83-3.29,1.24-6.73,2.27-10.27,3.17-9.64,2.47-19.94,4.04-29.58,6.51-3.52.91-6.97,1.93-10.27,3.17-5.69,2.15-10.93,4.92-15.43,8.84Z"></path>
      </g>
    </mask>
  </defs>
  <g class="cls-1">
    <path class="cls-2" d="m114.92,13.82l5.57,24.03,23.51,17.26c-4.48,3.9-9.73,6.68-15.43,8.83-3.29,1.24-6.73,2.27-10.26,3.17-9.64,2.47-19.94,4.04-29.58,6.51l30.37,43.14-26.99,10.18-29.08-41.3-29.09-41.29c4.5-3.92,9.74-6.69,15.43-8.84,3.29-1.24,6.73-2.27,10.27-3.17,9.65-2.47,19.94-4.03,29.58-6.51,3.53-.91,6.97-1.93,10.27-3.17,5.7-2.15,10.96-4.94,15.43-8.83h.01Z"></path>
  </g>
  <path class="cls-2" d="m114.92,13.82l5.57,24.03,23.51,17.26c-4.48,3.9-9.73,6.68-15.43,8.83-3.29,1.24-6.73,2.27-10.27,3.17-9.64,2.47-19.94,4.04-29.58,6.51l30.37,43.14-26.99,10.18-29.08-41.3-29.09-41.29c4.5-3.92,9.74-6.69,15.43-8.84,3.29-1.24,6.73-2.27,10.27-3.17,9.65-2.47,19.94-4.03,29.58-6.51,3.53-.91,6.97-1.93,10.27-3.17,5.7-2.15,10.96-4.94,15.43-8.83h.01Z"></path>
  <g class="cls-7">
    <path class="cls-2" d="m105,40.72l5.57,24.03,23.51,17.26c-4.48,3.9-9.73,6.68-15.43,8.83-3.29,1.24-6.73,2.27-10.27,3.17-9.64,2.47-19.94,4.04-29.58,6.51l30.37,43.14-26.99,10.18-29.08-41.3-29.08-41.29c4.5-3.92,9.74-6.69,15.43-8.84,3.29-1.24,6.73-2.27,10.27-3.17,9.65-2.47,19.94-4.03,29.58-6.51,3.53-.91,6.97-1.93,10.27-3.17,5.7-2.15,10.96-4.94,15.43-8.83Z"></path>
  </g>
  <path class="cls-2" d="m105,40.72l5.57,24.03,23.51,17.26c-4.48,3.9-9.73,6.68-15.43,8.83-3.29,1.24-6.73,2.27-10.27,3.17-9.64,2.47-19.94,4.04-29.58,6.51l30.37,43.14-26.99,10.18-29.08-41.3-29.08-41.29c4.5-3.92,9.74-6.69,15.43-8.84,3.29-1.24,6.73-2.27,10.27-3.17,9.65-2.47,19.94-4.03,29.58-6.51,3.53-.91,6.97-1.93,10.27-3.17,5.7-2.15,10.96-4.94,15.43-8.83Z"></path>
  <g class="cls-4">
    <path class="cls-2" d="m105,40.72l9.92-26.9,5.55,24.03-9.91,26.89-5.57-24.02Z"></path>
  </g>
  <path class="cls-2" d="m105,40.72l9.92-26.9,5.55,24.03-9.91,26.89-5.57-24.02Z"></path>
  <g class="cls-3">
    <path class="cls-2" d="m110.56,64.74l9.91-26.89,23.51,17.26-9.91,26.89-23.51-17.26Z"></path>
  </g>
  <path class="cls-2" d="m110.56,64.74l9.91-26.89,23.51,17.26-9.91,26.89-23.51-17.26Z"></path>
  <g class="cls-6">
    <path class="cls-2" d="m134.07,82c-4.48,3.9-9.73,6.68-15.43,8.83-3.29,1.24-6.73,2.27-10.27,3.17-9.64,2.47-19.94,4.04-29.58,6.51l9.91-26.9c9.65-2.47,19.94-4.04,29.58-6.51,3.53-.91,6.97-1.93,10.27-3.17,5.7-2.15,10.95-4.94,15.43-8.83-2.97,8.06-5.08,19.86-9.91,26.9Z"></path>
  </g>
  <path class="cls-2" d="m134.07,82c-4.48,3.9-9.73,6.68-15.43,8.83-3.29,1.24-6.73,2.27-10.27,3.17-9.64,2.47-19.94,4.04-29.58,6.51l9.91-26.9c9.65-2.47,19.94-4.04,29.58-6.51,3.53-.91,6.97-1.93,10.27-3.17,5.7-2.15,10.95-4.94,15.43-8.83-2.97,8.06-5.08,19.86-9.91,26.9Z"></path>
  <g class="cls-5">
    <path class="cls-2" d="m78.78,100.52l9.91-26.9,30.37,43.14-9.91,26.9-30.37-43.14Z"></path>
  </g>
  <path class="cls-2" d="m78.78,100.52l9.91-26.9,30.37,43.14-9.91,26.9-30.37-43.14Z"></path>
  <g class="cls-9">
    <path class="cls-2" d="m109.16,143.66l-26.99,10.17,9.91-26.89,26.99-10.18-9.91,26.9Z"></path>
  </g>
  <path class="cls-2" d="m109.16,143.66l-26.99,10.17,9.91-26.89,26.99-10.18-9.91,26.9Z"></path>
  <g class="cls-8">
    <path class="cls-2" d="m24.02,71.24l9.91-26.9c4.5-3.92,9.74-6.69,15.43-8.84,3.29-1.24,6.73-2.27,10.27-3.17,9.65-2.47,19.94-4.03,29.58-6.51,3.53-.91,6.97-1.93,10.27-3.17,5.7-2.15,10.96-4.94,15.43-8.83l-9.91,26.9c-4.48,3.9-9.73,6.68-15.43,8.83-3.29,1.24-6.73,2.27-10.27,3.17-9.64,2.47-19.94,4.04-29.58,6.51-3.52.91-6.97,1.93-10.27,3.17-5.69,2.15-10.93,4.92-15.43,8.84Z"></path>
  </g>
  <path class="cls-2" d="m24.02,71.24l9.91-26.9c4.5-3.92,9.74-6.69,15.43-8.84,3.29-1.24,6.73-2.27,10.27-3.17,9.65-2.47,19.94-4.03,29.58-6.51,3.53-.91,6.97-1.93,10.27-3.17,5.7-2.15,10.96-4.94,15.43-8.83l-9.91,26.9c-4.48,3.9-9.73,6.68-15.43,8.83-3.29,1.24-6.73,2.27-10.27,3.17-9.64,2.47-19.94,4.04-29.58,6.51-3.52.91-6.97,1.93-10.27,3.17-5.69,2.15-10.93,4.92-15.43,8.84Z"></path>
</svg>
