<?xml version="1.0" encoding="UTF-8"?>
<svg xmlns="http://www.w3.org/2000/svg" xmlns:xlink="http://www.w3.org/1999/xlink" id="Layer_1" viewBox="0 0 168 168">
  <defs>
    <style>.cls-1{mask:url(#mask-13);}.cls-2{mask:url(#mask-12);}.cls-3{mask:url(#mask-11);}.cls-4{mask:url(#mask-10);}.cls-5{clip-path:url(#clippath);}.cls-6,.cls-7{fill:none;}.cls-6,.cls-8{stroke-width:0px;}.cls-9{mask:url(#mask);}.cls-7{stroke:#e80d46;stroke-linejoin:round;stroke-width:.5px;}.cls-10{mask:url(#mask-3);}.cls-11{mask:url(#mask-2);}.cls-12{mask:url(#mask-5);}.cls-13{mask:url(#mask-4);}.cls-14{mask:url(#mask-1);}.cls-15{mask:url(#mask-7);}.cls-16{mask:url(#mask-6);}.cls-17{mask:url(#mask-8);}.cls-18{mask:url(#mask-9);}.cls-8{fill:#fff;}</style>
    <clipPath id="clippath">
      <rect class="cls-6" x="7" y="16" width="154" height="134"></rect>
    </clipPath>
    <mask id="mask" x="27.94" y="70.34" width="133.1" height="61.42" maskUnits="userSpaceOnUse">
      <g id="mask0_1010_6777">
        <path class="cls-8" d="m129.7,77.51l31.1,16.27c-10.79,25.7-36.53,40.35-65.6,37.35-28.68-2.96-54.98-22.69-67-50.25l30.41-10.29c6.44,14.77,20.55,25.36,35.92,26.94,15.59,1.61,29.39-6.25,35.18-20.03Z"></path>
      </g>
    </mask>
    <mask id="mask-1" x="6.96" y="88.62" width="133.1" height="61.42" maskUnits="userSpaceOnUse">
      <g id="mask1_1010_6777">
        <path class="cls-8" d="m108.71,95.79l31.1,16.27c-10.8,25.7-36.53,40.35-65.6,37.35-28.68-2.96-54.98-22.69-67-50.25l30.41-10.29c6.44,14.77,20.55,25.36,35.92,26.94,15.59,1.61,29.39-6.25,35.18-20.03Z"></path>
      </g>
    </mask>
    <mask id="mask-2" x="108.46" y="77.26" width="52.58" height="35.05" maskUnits="userSpaceOnUse">
      <g id="mask2_1010_6777">
        <path class="cls-8" d="m108.71,95.79l20.99-18.28,31.1,16.26-20.99,18.29-31.1-16.27Z"></path>
      </g>
    </mask>
    <mask id="mask-3" x="6.96" y="80.62" width="137.93" height="69.43" maskUnits="userSpaceOnUse">
      <g id="mask3_1010_6777">
        <path class="cls-8" d="m123.65,134.55c-12.91,11.25-30.47,16.82-49.44,14.86-28.68-2.96-54.98-22.69-67-50.25l20.99-18.29c12.02,27.56,38.32,47.29,67,50.25,18.98,1.96,36.53-3.61,49.44-14.86-6.29,5.49-14.69,12.8-20.99,18.29Z"></path>
      </g>
    </mask>
    <mask id="mask-4" x="73.96" y="93.52" width="87.09" height="56.53" maskUnits="userSpaceOnUse">
      <g id="mask4_1010_6777">
        <path class="cls-8" d="m144.63,116.26l-20.99,18.29c6.86-5.98,12.41-13.57,16.16-22.49l20.99-18.29c-3.74,8.92-9.3,16.51-16.16,22.49Z"></path>
      </g>
    </mask>
    <mask id="mask-5" x="6.96" y="70.33" width="51.89" height="29.08" maskUnits="userSpaceOnUse">
      <g id="mask5_1010_6777">
        <path class="cls-8" d="m7.21,99.16l20.99-18.29,30.41-10.29-20.99,18.29-30.41,10.29Z"></path>
      </g>
    </mask>
    <mask id="mask-6" x="73.29" y="77.25" width="56.66" height="39.03" maskUnits="userSpaceOnUse">
      <g id="mask6_1010_6777">
        <path class="cls-8" d="m100.05,107.85c3.68-3.2,6.66-7.28,8.66-12.05l20.99-18.29c-2.01,4.78-4.98,8.85-8.66,12.05-6.29,5.49-14.69,12.8-20.99,18.29Z"></path>
      </g>
    </mask>
    <mask id="mask-7" x="37.37" y="70.33" width="83.92" height="45.94" maskUnits="userSpaceOnUse">
      <g id="mask7_1010_6777">
        <path class="cls-8" d="m121.04,89.56l-20.99,18.29c-6.92,6.03-16.33,9.01-26.51,7.96-15.37-1.59-29.48-12.17-35.92-26.94l20.99-18.29c6.44,14.77,20.55,25.36,35.92,26.94,10.17,1.05,19.59-1.93,26.51-7.96Z"></path>
      </g>
    </mask>
    <mask id="mask-8" x="104.27" y="21.72" width="34.08" height="34.37" maskUnits="userSpaceOnUse">
      <g id="mask8_1010_6777">
        <path class="cls-8" d="m133.15,52.28c6.58-5.73,6.61-16.37.07-23.76-6.54-7.39-17.17-8.73-23.74-3-6.58,5.73-6.61,16.37-.07,23.76,6.54,7.39,17.17,8.73,23.74,3Z"></path>
      </g>
    </mask>
    <mask id="mask-9" x="83.29" y="40.01" width="34.08" height="34.37" maskUnits="userSpaceOnUse">
      <g id="mask9_1010_6777">
        <path class="cls-8" d="m112.17,70.57c6.57-5.73,6.61-16.37.07-23.76-6.54-7.39-17.17-8.73-23.74-3-6.58,5.73-6.61,16.37-.07,23.76,6.54,7.39,17.17,8.73,23.74,3Z"></path>
      </g>
    </mask>
    <mask id="mask-10" x="83.31" y="25.31" width="50.11" height="49.1" maskUnits="userSpaceOnUse">
      <g id="mask10_1010_6777">
        <path class="cls-8" d="m112.18,70.61c-2.96,2.58-7,3.93-11.5,3.47-9.27-.96-16.94-9.28-17.12-18.58-.1-4.79,1.81-8.91,4.95-11.64l20.99-18.29c-3.14,2.74-5.05,6.85-4.95,11.64.18,9.3,7.86,17.62,17.12,18.58,4.5.46,8.54-.89,11.5-3.47-6.29,5.49-14.69,12.8-20.99,18.29Z"></path>
      </g>
    </mask>
    <mask id="mask-11" x="48.48" y="15.96" width="34.08" height="34.37" maskUnits="userSpaceOnUse">
      <g id="mask11_1010_6777">
        <path class="cls-8" d="m77.36,46.52c6.58-5.73,6.61-16.37.07-23.76-6.54-7.39-17.17-8.73-23.74-3-6.58,5.73-6.61,16.37-.07,23.76,6.54,7.39,17.17,8.73,23.74,3Z"></path>
      </g>
    </mask>
    <mask id="mask-12" x="27.5" y="34.25" width="34.08" height="34.37" maskUnits="userSpaceOnUse">
      <g id="mask12_1010_6777">
        <path class="cls-8" d="m56.37,64.81c6.58-5.73,6.61-16.37.07-23.76-6.54-7.39-17.17-8.73-23.74-3-6.58,5.73-6.61,16.37-.07,23.76,6.54,7.39,17.17,8.73,23.74,3Z"></path>
      </g>
    </mask>
    <mask id="mask-13" x="27.51" y="19.55" width="50.11" height="49.1" maskUnits="userSpaceOnUse">
      <g id="mask13_1010_6777">
        <path class="cls-8" d="m56.38,64.85c-2.96,2.58-7,3.93-11.5,3.47-9.27-.96-16.94-9.28-17.12-18.58-.1-4.79,1.81-8.91,4.95-11.64l20.99-18.29c-3.14,2.74-5.05,6.85-4.95,11.64.18,9.3,7.86,17.62,17.12,18.58,4.5.46,8.54-.89,11.5-3.47-6.29,5.49-14.69,12.8-20.99,18.29Z"></path>
      </g>
    </mask>
  </defs>
  <g class="cls-5">
    <g class="cls-9">
      <path class="cls-7" d="m129.7,77.51l31.1,16.27c-10.79,25.7-36.53,40.35-65.6,37.35-28.68-2.96-54.98-22.69-67-50.25l30.41-10.29c6.44,14.77,20.55,25.36,35.92,26.94,15.59,1.61,29.39-6.25,35.18-20.03Z"></path>
    </g>
    <path class="cls-7" d="m129.7,77.51l31.1,16.27c-10.79,25.7-36.53,40.35-65.6,37.35-28.68-2.96-54.98-22.69-67-50.25l30.41-10.29c6.44,14.77,20.55,25.36,35.92,26.94,15.59,1.61,29.39-6.25,35.18-20.03Z"></path>
    <g class="cls-14">
      <path class="cls-7" d="m108.71,95.79l31.1,16.27c-10.8,25.7-36.53,40.35-65.6,37.35-28.68-2.96-54.98-22.69-67-50.25l30.41-10.29c6.44,14.77,20.55,25.36,35.92,26.94,15.59,1.61,29.39-6.25,35.18-20.03Z"></path>
    </g>
    <path class="cls-7" d="m108.71,95.79l31.1,16.27c-10.8,25.7-36.53,40.35-65.6,37.35-28.68-2.96-54.98-22.69-67-50.25l30.41-10.29c6.44,14.77,20.55,25.36,35.92,26.94,15.59,1.61,29.39-6.25,35.18-20.03Z"></path>
    <g class="cls-11">
      <path class="cls-7" d="m108.71,95.79l20.99-18.28,31.1,16.26-20.99,18.29-31.1-16.27Z"></path>
    </g>
    <path class="cls-7" d="m108.71,95.79l20.99-18.28,31.1,16.26-20.99,18.29-31.1-16.27Z"></path>
    <g class="cls-10">
      <path class="cls-7" d="m123.65,134.55c-12.91,11.25-30.47,16.82-49.44,14.86-28.68-2.96-54.98-22.69-67-50.25l20.99-18.29c12.02,27.56,38.32,47.29,67,50.25,18.98,1.96,36.53-3.61,49.44-14.86-6.29,5.49-14.69,12.8-20.99,18.29Z"></path>
    </g>
    <path class="cls-7" d="m123.65,134.55c-12.91,11.25-30.47,16.82-49.44,14.86-28.68-2.96-54.98-22.69-67-50.25l20.99-18.29c12.02,27.56,38.32,47.29,67,50.25,18.98,1.96,36.53-3.61,49.44-14.86-6.29,5.49-14.69,12.8-20.99,18.29Z"></path>
    <g class="cls-13">
      <path class="cls-7" d="m139.81,112.06l20.99-18.29c-10.8,25.7-36.53,40.35-65.6,37.35l-20.99,18.29c29.07,3,54.81-11.65,65.6-37.35Z"></path>
      <path class="cls-7" d="m124.47,133.83l20.99-18.29"></path>
      <path class="cls-7" d="m144.63,116.26l-20.99,18.29c6.86-5.98,12.41-13.57,16.16-22.49l20.99-18.29c-3.74,8.92-9.3,16.51-16.16,22.49Z"></path>
    </g>
    <path class="cls-7" d="m144.63,116.26l-20.99,18.29c6.86-5.98,12.41-13.57,16.16-22.49l20.99-18.29c-3.74,8.92-9.3,16.51-16.16,22.49Z"></path>
    <g class="cls-12">
      <path class="cls-7" d="m7.21,99.16l20.99-18.29,30.41-10.29-20.99,18.29-30.41,10.29Z"></path>
    </g>
    <path class="cls-7" d="m7.21,99.16l20.99-18.29,30.41-10.29-20.99,18.29-30.41,10.29Z"></path>
    <g class="cls-16">
      <path class="cls-7" d="m73.54,115.82l20.99-18.29c15.59,1.61,29.39-6.25,35.18-20.03l-20.99,18.29c-5.79,13.77-19.59,21.64-35.18,20.03Z"></path>
      <path class="cls-7" d="m100.49,107.47l20.98-18.29"></path>
      <path class="cls-7" d="m100.05,107.85c3.68-3.2,6.66-7.28,8.66-12.05l20.99-18.29c-2.01,4.78-4.98,8.85-8.66,12.05-6.29,5.49-14.69,12.8-20.99,18.29Z"></path>
    </g>
    <path class="cls-7" d="m100.05,107.85c3.68-3.2,6.66-7.28,8.66-12.05l20.99-18.29c-2.01,4.78-4.98,8.85-8.66,12.05-6.29,5.49-14.69,12.8-20.99,18.29Z"></path>
    <g class="cls-15">
      <path class="cls-7" d="m121.04,89.56l-20.99,18.29c-6.92,6.03-16.33,9.01-26.51,7.96-15.37-1.59-29.48-12.17-35.92-26.94l20.99-18.29c6.44,14.77,20.55,25.36,35.92,26.94,10.17,1.05,19.59-1.93,26.51-7.96Z"></path>
    </g>
    <path class="cls-7" d="m121.04,89.56l-20.99,18.29c-6.92,6.03-16.33,9.01-26.51,7.96-15.37-1.59-29.48-12.17-35.92-26.94l20.99-18.29c6.44,14.77,20.55,25.36,35.92,26.94,10.17,1.05,19.59-1.93,26.51-7.96Z"></path>
    <g class="cls-17">
      <path class="cls-7" d="m133.15,52.28c6.58-5.73,6.61-16.37.07-23.76-6.54-7.39-17.17-8.73-23.74-3-6.58,5.73-6.61,16.37-.07,23.76,6.54,7.39,17.17,8.73,23.74,3Z"></path>
    </g>
    <path class="cls-7" d="m133.15,52.28c6.58-5.73,6.61-16.37.07-23.76-6.54-7.39-17.17-8.73-23.74-3-6.58,5.73-6.61,16.37-.07,23.76,6.54,7.39,17.17,8.73,23.74,3Z"></path>
    <g class="cls-18">
      <path class="cls-7" d="m112.17,70.57c6.57-5.73,6.61-16.37.07-23.76-6.54-7.39-17.17-8.73-23.74-3-6.58,5.73-6.61,16.37-.07,23.76,6.54,7.39,17.17,8.73,23.74,3Z"></path>
    </g>
    <path class="cls-7" d="m112.17,70.57c6.57-5.73,6.61-16.37.07-23.76-6.54-7.39-17.17-8.73-23.74-3-6.58,5.73-6.61,16.37-.07,23.76,6.54,7.39,17.17,8.73,23.74,3Z"></path>
    <g class="cls-4">
      <path class="cls-7" d="m112.18,70.61c-2.96,2.58-7,3.93-11.5,3.47-9.27-.96-16.94-9.28-17.12-18.58-.1-4.79,1.81-8.91,4.95-11.64l20.99-18.29c-3.14,2.74-5.05,6.85-4.95,11.64.18,9.3,7.86,17.62,17.12,18.58,4.5.46,8.54-.89,11.5-3.47-6.29,5.49-14.69,12.8-20.99,18.29Z"></path>
    </g>
    <path class="cls-7" d="m112.18,70.61c-2.96,2.58-7,3.93-11.5,3.47-9.27-.96-16.94-9.28-17.12-18.58-.1-4.79,1.81-8.91,4.95-11.64l20.99-18.29c-3.14,2.74-5.05,6.85-4.95,11.64.18,9.3,7.86,17.62,17.12,18.58,4.5.46,8.54-.89,11.5-3.47-6.29,5.49-14.69,12.8-20.99,18.29Z"></path>
    <g class="cls-3">
      <path class="cls-7" d="m77.36,46.52c6.58-5.73,6.61-16.37.07-23.76-6.54-7.39-17.17-8.73-23.74-3-6.58,5.73-6.61,16.37-.07,23.76,6.54,7.39,17.17,8.73,23.74,3Z"></path>
    </g>
    <path class="cls-7" d="m77.36,46.52c6.58-5.73,6.61-16.37.07-23.76-6.54-7.39-17.17-8.73-23.74-3-6.58,5.73-6.61,16.37-.07,23.76,6.54,7.39,17.17,8.73,23.74,3Z"></path>
    <g class="cls-2">
      <path class="cls-7" d="m56.37,64.81c6.58-5.73,6.61-16.37.07-23.76-6.54-7.39-17.17-8.73-23.74-3-6.58,5.73-6.61,16.37-.07,23.76,6.54,7.39,17.17,8.73,23.74,3Z"></path>
    </g>
    <path class="cls-7" d="m56.37,64.81c6.58-5.73,6.61-16.37.07-23.76-6.54-7.39-17.17-8.73-23.74-3-6.58,5.73-6.61,16.37-.07,23.76,6.54,7.39,17.17,8.73,23.74,3Z"></path>
    <g class="cls-1">
      <path class="cls-7" d="m56.38,64.85c-2.96,2.58-7,3.93-11.5,3.47-9.27-.96-16.94-9.28-17.12-18.58-.1-4.79,1.81-8.91,4.95-11.64l20.99-18.29c-3.14,2.74-5.05,6.85-4.95,11.64.18,9.3,7.86,17.62,17.12,18.58,4.5.46,8.54-.89,11.5-3.47-6.29,5.49-14.69,12.8-20.99,18.29Z"></path>
    </g>
    <path class="cls-7" d="m56.38,64.85c-2.96,2.58-7,3.93-11.5,3.47-9.27-.96-16.94-9.28-17.12-18.58-.1-4.79,1.81-8.91,4.95-11.64l20.99-18.29c-3.14,2.74-5.05,6.85-4.95,11.64.18,9.3,7.86,17.62,17.12,18.58,4.5.46,8.54-.89,11.5-3.47-6.29,5.49-14.69,12.8-20.99,18.29Z"></path>
  </g>
</svg>
