<?xml version="1.0" encoding="UTF-8"?>
<svg xmlns="http://www.w3.org/2000/svg" xmlns:xlink="http://www.w3.org/1999/xlink" id="Layer_1" viewBox="0 0 168 168">
  <defs>
    <style>.cls-1{clip-path:url(#clippath);}.cls-2,.cls-3{fill:none;}.cls-2,.cls-4{stroke-width:0px;}.cls-5{mask:url(#mask);}.cls-3{stroke:#e80d46;stroke-linejoin:round;stroke-width:.5px;}.cls-6{mask:url(#mask-3);}.cls-7{mask:url(#mask-2);}.cls-8{mask:url(#mask-1);}.cls-4{fill:#fff;}</style>
    <clipPath id="clippath">
      <rect class="cls-2" x="11" y="16.5" width="146" height="135"></rect>
    </clipPath>
    <mask id="mask" x="31.22" y="51.74" width="125.78" height="99.75" maskUnits="userSpaceOnUse">
      <g id="mask0_1008_6321">
        <path class="cls-4" d="m32.06,114.59c4.69-26.45,36.27-53.7,70.55-60.86,34.28-7.16,58.25,8.49,53.56,34.94-4.69,26.45-36.27,53.7-70.55,60.85-34.28,7.15-58.25-8.49-53.56-34.94h0Zm86.62-18.09c1.85-10.46-7.66-16.66-21.22-13.83-13.55,2.83-26.07,13.64-27.93,24.09-1.85,10.46,7.66,16.66,21.2,13.83,13.55-2.83,26.08-13.64,27.93-24.09"></path>
      </g>
    </mask>
    <mask id="mask-1" x="10.98" y="16.48" width="125.78" height="99.76" maskUnits="userSpaceOnUse">
      <g id="mask1_1008_6321">
        <path class="cls-4" d="m11.82,79.32c4.69-26.45,36.27-53.7,70.55-60.85,34.28-7.16,58.25,8.49,53.56,34.94-4.69,26.45-36.27,53.7-70.55,60.85-34.26,7.16-58.25-8.49-53.56-34.94Zm86.62-18.09c1.85-10.46-7.66-16.66-21.22-13.83-13.55,2.83-26.07,13.64-27.93,24.09-1.85,10.46,7.66,16.66,21.2,13.83,13.55-2.83,26.08-13.64,27.93-24.09"></path>
      </g>
    </mask>
    <mask id="mask-2" x="14.58" y="32.61" width="142.43" height="118.91" maskUnits="userSpaceOnUse">
      <g id="mask2_1008_6321">
        <path class="cls-4" d="m14.83,99.87c7.6,13.23,26.55,19.39,50.55,14.38,34.28-7.16,65.86-34.4,70.55-60.85,1.41-7.93.23-14.89-3.02-20.55l20.25,35.27c3.25,5.67,4.43,12.62,3.02,20.55-4.69,26.45-36.27,53.7-70.55,60.85-24,5.01-42.96-1.16-50.55-14.39-6.07-10.59-14.17-24.69-20.25-35.27Z"></path>
      </g>
    </mask>
    <mask id="mask-3" x="48.83" y="46.47" width="68.92" height="68.66" maskUnits="userSpaceOnUse">
      <g id="mask3_1008_6321">
        <path class="cls-4" d="m50.51,79.62c-1.28-2.24-1.75-4.98-1.19-8.11,1.85-10.46,14.38-21.26,27.93-24.09,9.49-1.98,17.01.48,20.01,5.72l20.25,35.27c-3.02-5.24-10.52-7.7-20.01-5.72-13.55,2.83-26.07,13.64-27.93,24.09-.56,3.13-.09,5.87,1.19,8.11-6.07-10.59-14.17-24.69-20.24-35.27Z"></path>
      </g>
    </mask>
  </defs>
  <g class="cls-1">
    <g class="cls-5">
      <path class="cls-3" d="m118.68,96.5c1.85-10.46-7.66-16.66-21.22-13.83-13.55,2.83-26.07,13.64-27.93,24.09-1.85,10.46,7.66,16.66,21.2,13.83,13.55-2.83,26.08-13.64,27.93-24.09m-86.61,18.09c4.69-26.45,36.27-53.7,70.55-60.86,34.28-7.16,58.25,8.49,53.56,34.94-4.69,26.45-36.27,53.7-70.55,60.85-34.28,7.15-58.25-8.49-53.56-34.94h0Z"></path>
    </g>
    <path class="cls-3" d="m118.68,96.5c1.85-10.46-7.66-16.66-21.22-13.83-13.55,2.83-26.07,13.64-27.93,24.09-1.85,10.46,7.66,16.66,21.2,13.83,13.55-2.83,26.08-13.64,27.93-24.09m-86.61,18.09c4.69-26.45,36.27-53.7,70.55-60.86,34.28-7.16,58.25,8.49,53.56,34.94-4.69,26.45-36.27,53.7-70.55,60.85-34.28,7.15-58.25-8.49-53.56-34.94h0Z"></path>
    <g class="cls-8">
      <path class="cls-3" d="m98.44,61.23c1.85-10.46-7.66-16.66-21.22-13.83-13.55,2.83-26.07,13.64-27.93,24.09-1.85,10.46,7.66,16.66,21.2,13.83,13.55-2.83,26.08-13.64,27.93-24.09M11.82,79.32c4.69-26.45,36.27-53.7,70.55-60.85,34.28-7.16,58.25,8.49,53.56,34.94-4.69,26.45-36.27,53.7-70.55,60.85-34.26,7.16-58.25-8.49-53.56-34.94Z"></path>
    </g>
    <path class="cls-3" d="m98.44,61.23c1.85-10.46-7.66-16.66-21.22-13.83-13.55,2.83-26.07,13.64-27.93,24.09-1.85,10.46,7.66,16.66,21.2,13.83,13.55-2.83,26.08-13.64,27.93-24.09M11.82,79.32c4.69-26.45,36.27-53.7,70.55-60.85,34.28-7.16,58.25,8.49,53.56,34.94-4.69,26.45-36.27,53.7-70.55,60.85-34.26,7.16-58.25-8.49-53.56-34.94Z"></path>
    <g class="cls-7">
      <path class="cls-3" d="m14.83,99.87c7.6,13.23,26.55,19.39,50.55,14.38,34.28-7.16,65.86-34.4,70.55-60.85,1.41-7.93.23-14.89-3.02-20.55l20.25,35.27c3.25,5.67,4.43,12.62,3.02,20.55-4.69,26.45-36.27,53.7-70.55,60.85-24,5.01-42.96-1.16-50.55-14.39-6.07-10.59-14.17-24.69-20.25-35.27Z"></path>
    </g>
    <path class="cls-3" d="m14.83,99.87c7.6,13.23,26.55,19.39,50.55,14.38,34.28-7.16,65.86-34.4,70.55-60.85,1.41-7.93.23-14.89-3.02-20.55l20.25,35.27c3.25,5.67,4.43,12.62,3.02,20.55-4.69,26.45-36.27,53.7-70.55,60.85-24,5.01-42.96-1.16-50.55-14.39-6.07-10.59-14.17-24.69-20.25-35.27Z"></path>
    <g class="cls-6">
      <path class="cls-3" d="m50.51,79.62c-1.28-2.24-1.75-4.98-1.19-8.11,1.85-10.46,14.38-21.26,27.93-24.09,9.49-1.98,17.01.48,20.01,5.72l20.25,35.27c-3.02-5.24-10.52-7.7-20.01-5.72-13.55,2.83-26.07,13.64-27.93,24.09-.56,3.13-.09,5.87,1.19,8.11-6.07-10.59-14.17-24.69-20.24-35.27Z"></path>
    </g>
    <path class="cls-3" d="m50.51,79.62c-1.28-2.24-1.75-4.98-1.19-8.11,1.85-10.46,14.38-21.26,27.93-24.09,9.49-1.98,17.01.48,20.01,5.72l20.25,35.27c-3.02-5.24-10.52-7.7-20.01-5.72-13.55,2.83-26.07,13.64-27.93,24.09-.56,3.13-.09,5.87,1.19,8.11-6.07-10.59-14.17-24.69-20.24-35.27Z"></path>
  </g>
</svg>
