<?xml version="1.0" encoding="UTF-8"?>
<svg xmlns="http://www.w3.org/2000/svg" xmlns:xlink="http://www.w3.org/1999/xlink" id="Layer_1" viewBox="0 0 168 168">
  <defs>
    <style>.cls-1{clip-path:url(#clippath);}.cls-2,.cls-3{fill:none;}.cls-2,.cls-4{stroke-width:0px;}.cls-5{mask:url(#mask);}.cls-3{stroke:#e80d46;stroke-linejoin:round;stroke-width:.5px;}.cls-6{mask:url(#mask-1);}.cls-4{fill:#fff;}</style>
    <clipPath id="clippath">
      <rect class="cls-2" x="9.66" y="8.47" width="148.68" height="145.07" transform="translate(-18.59 25.39) rotate(-15.5)"></rect>
    </clipPath>
    <mask id="mask" x="62.39" y="23.89" width="92.63" height="131.81" maskUnits="userSpaceOnUse">
      <g id="mask0_1010_6409">
        <path class="cls-4" d="m100.27,24.14l54.51,34.63-16.64,9.98,6.92,51.4-29.43,17.65-29.43,17.66-6.92-51.4-16.63,9.98L100.27,24.14Z"></path>
      </g>
    </mask>
    <mask id="mask-1" x="13.44" y="14.75" width="92.63" height="131.82" maskUnits="userSpaceOnUse">
      <g id="mask1_1010_6409">
        <path class="cls-4" d="m51.32,15l54.5,34.64-16.63,9.97,6.91,51.4-29.43,17.66-29.44,17.65-6.91-51.39-16.64,9.98L51.32,15Z"></path>
      </g>
    </mask>
  </defs>
  <g class="cls-1">
    <g class="cls-5">
      <path class="cls-3" d="m100.27,24.14l54.51,34.63-16.64,9.98,6.92,51.4-29.43,17.65-29.43,17.66-6.92-51.4-16.63,9.98L100.27,24.14Z"></path>
    </g>
    <path class="cls-3" d="m100.27,24.14l54.51,34.63-16.64,9.98,6.92,51.4-29.43,17.65-29.43,17.66-6.92-51.4-16.63,9.98L100.27,24.14Z"></path>
    <g class="cls-6">
      <path class="cls-3" d="m51.32,15l54.5,34.64-16.63,9.97,6.91,51.4-29.43,17.66-29.44,17.65-6.91-51.39-16.64,9.98L51.32,15Z"></path>
    </g>
    <path class="cls-3" d="m51.32,15l54.5,34.64-16.63,9.97,6.91,51.4-29.43,17.66-29.44,17.65-6.91-51.39-16.64,9.98L51.32,15Z"></path>
    <path class="cls-3" d="m51.32,15l48.95,9.14"></path>
    <path class="cls-3" d="m105.82,49.63l48.96,9.14"></path>
    <path class="cls-3" d="m13.69,104.9l48.96,9.14"></path>
    <path class="cls-3" d="m30.33,94.92l48.95,9.14"></path>
    <path class="cls-3" d="m89.19,59.61l48.95,9.14"></path>
    <path class="cls-3" d="m37.24,146.31l48.96,9.14"></path>
    <path class="cls-3" d="m96.1,111.01l48.96,9.14"></path>
  </g>
</svg>
